<?xml version="1.0" encoding="utf-8"?>
<!-- Generator: Adobe Illustrator 25.1.0, SVG Export Plug-In . SVG Version: 6.00 Build 0)  -->
<svg version="1.1" xmlns="http://www.w3.org/2000/svg" xmlns:xlink="http://www.w3.org/1999/xlink" x="0px" y="0px"
	 viewBox="0 0 1500 1500" style="enable-background:new 0 0 1500 1500;" xml:space="preserve">
<style type="text/css">
	.st0{display:none;}
	.st1{display:inline;}
	.st2{fill:#B3B3B3;stroke:#666666;stroke-width:0.25;stroke-miterlimit:10;}
	.st3{fill:#808080;fill-opacity:0.65;}
	.st4{fill:none;stroke:#666666;stroke-width:12;stroke-miterlimit:10;}
	.st5{fill:#FFFFFF;stroke:#333333;stroke-width:12;stroke-miterlimit:10;}
	.st6{fill:none;stroke:#333333;stroke-width:12;stroke-miterlimit:10;}
	.st7{display:inline;fill:#FFFFFF;stroke:#333333;stroke-width:12;stroke-miterlimit:10;}
	.st8{display:inline;fill:none;stroke:#333333;stroke-width:12;stroke-miterlimit:10;}
</style>
<g id="Контур" class="st0">
	<g class="st1">
		<path class="st2" d="M1187.47,1243H320.53c-36.74,0-66.53-29.79-66.53-66.53V309.53c0-36.74,29.79-66.53,66.53-66.53h866.94
			c36.74,0,66.53,29.79,66.53,66.53v866.94C1254,1213.21,1224.21,1243,1187.47,1243z"/>
		<path class="st3" d="M1129.47,1185H378.53c-36.74,0-66.53-29.79-66.53-66.53V367.53c0-36.74,29.79-66.53,66.53-66.53h750.94
			c36.74,0,66.53,29.79,66.53,66.53v750.94C1196,1155.21,1166.21,1185,1129.47,1185z"/>
		<path class="st4" d="M1086.47,1142H421.53c-36.74,0-66.53-29.79-66.53-66.53V410.53c0-36.74,29.79-66.53,66.53-66.53h664.94
			c36.74,0,66.53,29.79,66.53,66.53v664.94C1153,1112.21,1123.21,1142,1086.47,1142z"/>
		<line class="st4" x1="254" y1="310" x2="355" y2="411"/>
		<line class="st4" x1="321" y1="243" x2="422" y2="344"/>
		<line class="st4" x1="1085.97" y1="1141.75" x2="1186.97" y2="1242.75"/>
		<line class="st4" x1="1152.97" y1="1074.75" x2="1253.97" y2="1175.75"/>
		<line class="st4" x1="1152.97" y1="410.75" x2="1253.97" y2="309.75"/>
		<line class="st4" x1="1085.97" y1="343.75" x2="1186.97" y2="242.75"/>
		<line class="st4" x1="320.97" y1="1242.75" x2="421.97" y2="1141.75"/>
		<line class="st4" x1="253.97" y1="1175.75" x2="354.97" y2="1074.75"/>
		<path class="st4" d="M1187.47,1243H320.53c-36.74,0-66.53-29.79-66.53-66.53V309.53c0-36.74,29.79-66.53,66.53-66.53h866.94
			c36.74,0,66.53,29.79,66.53,66.53v866.94C1254,1213.21,1224.21,1243,1187.47,1243z"/>
	</g>
</g>
<g id="Лицо1">
	<path class="st5" d="M632.21,888h-71.42C534.4,888,513,866.6,513,840.21V645.79c0-26.39,21.4-47.79,47.79-47.79h71.42
		c26.39,0,47.79,21.4,47.79,47.79v194.42C680,866.6,658.6,888,632.21,888z"/>
	<path class="st5" d="M940.21,888h-71.42C842.4,888,821,866.6,821,840.21V645.79c0-26.39,21.4-47.79,47.79-47.79h71.42
		c26.39,0,47.79,21.4,47.79,47.79v194.42C988,866.6,966.6,888,940.21,888z"/>
	<path class="st6" d="M667,943c26.76-0.65,137.92-0.66,165,0"/>
</g>
<g id="Лицо2" class="st0">
	<path class="st7" d="M760.52,821.01c-8.16-0.09-17.29,0.65-27.05,2.86c-41.96,9.53-67.94,40.16-78.48,54.4
		c66,0.2,132.01,0.39,198.01,0.59c-8.39-13.11-29.97-42.59-67.39-53.67C776.58,822.51,768.09,821.34,760.52,821.01z"/>
	<path class="st7" d="M934.49,743.83c-7.26,3.74-15.75,7.17-25.47,9.57c-41.78,10.29-78.73-5.45-94.54-13.45
		c58.91-29.76,117.83-59.52,176.74-89.28c-1.63,15.48-7.7,51.51-36.18,78.19C948.16,735.29,941.1,740.14,934.49,743.83z"/>
	<path class="st7" d="M558.21,743.83c7.26,3.74,15.75,7.17,25.47,9.57c41.78,10.29,78.73-5.45,94.54-13.45
		c-58.91-29.76-117.83-59.52-176.74-89.28c1.63,15.48,7.7,51.51,36.18,78.19C544.54,735.29,551.6,740.14,558.21,743.83z"/>
</g>
<g id="Лицо3" class="st0">
	<path class="st8" d="M667,846c12.87-7.39,42.12-21.88,82-22c40.45-0.12,70.13,14.61,83,22"/>
	<path class="st7" d="M923.49,743.83c-7.26,3.74-15.75,7.17-25.47,9.57c-41.78,10.29-78.73-5.45-94.54-13.45
		c58.91-29.76,117.83-59.52,176.74-89.28c-1.63,15.48-7.7,51.51-36.18,78.19C937.16,735.29,930.1,740.14,923.49,743.83z"/>
	<path class="st7" d="M562.21,743.83c7.26,3.74,15.75,7.17,25.47,9.57c41.78,10.29,78.73-5.45,94.54-13.45
		c-58.91-29.76-117.83-59.52-176.74-89.28c1.63,15.48,7.7,51.51,36.18,78.19C548.54,735.29,555.6,740.14,562.21,743.83z"/>
</g>
<g id="Лицо4" class="st0">
	<path class="st7" d="M911.22,749.82c-8.16,0.09-17.29-0.65-27.05-2.86c-41.96-9.53-67.94-40.16-78.48-54.4
		c66-0.2,132.01-0.39,198.01-0.59c-8.39,13.11-29.97,42.59-67.39,53.67C927.27,748.32,918.78,749.49,911.22,749.82z"/>
	<path class="st7" d="M603.22,749.82c-8.16,0.09-17.29-0.65-27.05-2.86c-41.96-9.53-67.94-40.16-78.48-54.4
		c66-0.2,132.01-0.39,198.01-0.59c-8.39,13.11-29.97,42.59-67.39,53.67C619.27,748.32,610.78,749.49,603.22,749.82z"/>
	<path class="st8" d="M672,839c26.76-0.65,137.92-0.66,165,0"/>
</g>
<g id="Лицо5" class="st0">
	<path class="st8" d="M625,864c10.34-10.61,25.66-22.97,41-20c18.77,3.64,22.59,27.34,39,28c18.15,0.73,23.82-27.86,42.87-27.99
		c18.95-0.13,23.39,28.1,43.13,28.99c20.65,0.93,29.14-29.36,51-29c12.75,0.21,23.08,10.73,30,20"/>
	<path class="st7" d="M1038.21,761H884.79C858.4,761,837,739.6,837,713.21v0c0-26.39,21.4-47.79,47.79-47.79h153.42
		c26.39,0,47.79,21.4,47.79,47.79v0C1086,739.6,1064.6,761,1038.21,761z"/>
	<path class="st7" d="M623.86,761.17H470.44c-26.39,0-47.79-21.4-47.79-47.79v0c0-26.39,21.4-47.79,47.79-47.79h153.42
		c26.39,0,47.79,21.4,47.79,47.79v0C671.65,739.78,650.25,761.17,623.86,761.17z"/>
</g>
</svg>
