<?xml version="1.0" encoding="utf-8"?>
<!-- Generator: Adobe Illustrator 25.1.0, SVG Export Plug-In . SVG Version: 6.00 Build 0)  -->
<svg version="1.1" xmlns="http://www.w3.org/2000/svg" xmlns:xlink="http://www.w3.org/1999/xlink" x="0px" y="0px"
	 viewBox="0 0 1500 1500" style="enable-background:new 0 0 1500 1500;" xml:space="preserve">
<style type="text/css">
	.st0{display:none;}
	.st1{display:inline;}
	.st2{fill:#FCEE21;stroke:#F7931E;stroke-width:0.25;stroke-miterlimit:10;}
	.st3{fill:#FBB03B;fill-opacity:0.65;}
	.st4{fill:none;stroke:#F7931E;stroke-width:12;stroke-miterlimit:10;}
	.st5{display:inline;fill:#FFFFFF;stroke:#993700;stroke-width:12;stroke-miterlimit:10;}
	.st6{display:inline;fill:none;stroke:#993700;stroke-width:12;stroke-miterlimit:10;}
	.st7{fill:#FFFFFF;}
	.st8{fill:none;stroke:#993700;stroke-width:12;stroke-miterlimit:10;}
	.st9{fill:#FFFFFF;stroke:#993700;stroke-width:12;stroke-miterlimit:10;}
</style>
<g id="Контур" class="st0">
	<g class="st1">
		<path class="st2" d="M1187.47,1243H320.53c-36.74,0-66.53-29.79-66.53-66.53V309.53c0-36.74,29.79-66.53,66.53-66.53h866.94
			c36.74,0,66.53,29.79,66.53,66.53v866.94C1254,1213.21,1224.21,1243,1187.47,1243z"/>
		<path class="st3" d="M1129.47,1185H378.53c-36.74,0-66.53-29.79-66.53-66.53V367.53c0-36.74,29.79-66.53,66.53-66.53h750.94
			c36.74,0,66.53,29.79,66.53,66.53v750.94C1196,1155.21,1166.21,1185,1129.47,1185z"/>
		<path class="st4" d="M1086.47,1142H421.53c-36.74,0-66.53-29.79-66.53-66.53V410.53c0-36.74,29.79-66.53,66.53-66.53h664.94
			c36.74,0,66.53,29.79,66.53,66.53v664.94C1153,1112.21,1123.21,1142,1086.47,1142z"/>
		<line class="st4" x1="254" y1="310" x2="355" y2="411"/>
		<line class="st4" x1="321" y1="243" x2="422" y2="344"/>
		<line class="st4" x1="1085.97" y1="1141.75" x2="1186.97" y2="1242.75"/>
		<line class="st4" x1="1152.97" y1="1074.75" x2="1253.97" y2="1175.75"/>
		<line class="st4" x1="1152.97" y1="410.75" x2="1253.97" y2="309.75"/>
		<line class="st4" x1="1085.97" y1="343.75" x2="1186.97" y2="242.75"/>
		<line class="st4" x1="320.97" y1="1242.75" x2="421.97" y2="1141.75"/>
		<line class="st4" x1="253.97" y1="1175.75" x2="354.97" y2="1074.75"/>
		<path class="st4" d="M1187.47,1243H320.53c-36.74,0-66.53-29.79-66.53-66.53V309.53c0-36.74,29.79-66.53,66.53-66.53h866.94
			c36.74,0,66.53,29.79,66.53,66.53v866.94C1254,1213.21,1224.21,1243,1187.47,1243z"/>
	</g>
</g>
<g id="Лицо1" class="st0">
	<path class="st5" d="M632.21,888h-71.42C534.4,888,513,866.6,513,840.21V645.79c0-26.39,21.4-47.79,47.79-47.79h71.42
		c26.39,0,47.79,21.4,47.79,47.79v194.42C680,866.6,658.6,888,632.21,888z"/>
	<path class="st5" d="M940.21,888h-71.42C842.4,888,821,866.6,821,840.21V645.79c0-26.39,21.4-47.79,47.79-47.79h71.42
		c26.39,0,47.79,21.4,47.79,47.79v194.42C988,866.6,966.6,888,940.21,888z"/>
	<path class="st6" d="M667,943c6.92,6.01,40.58,33.95,90,31c40.14-2.4,66.7-23.74,75-31"/>
	<path class="st5" d="M479,605c3.31,5.29,8.43,12.22,16,19c6.93,6.2,13.72,10.32,19,13"/>
	<path class="st5" d="M499.91,576.44c3.16,5.49,8.51,13.26,17.09,20.56c6.54,5.57,12.94,9.15,17.91,11.44"/>
	<path class="st5" d="M1023.48,605.04c-3.31,5.29-8.43,12.22-16,19c-6.93,6.2-13.72,10.32-19,13"/>
	<path class="st5" d="M1005.56,576.48c-3.16,5.49-8.51,13.26-17.09,20.56c-6.54,5.57-12.94,9.15-17.91,11.44"/>
</g>
<g id="Лицо2" class="st0">
	<path class="st5" d="M657.18,792.01c-7.44-2.7-24.18-7.64-45.18-4.01c-21.39,3.7-35.67,14.29-41.73,19.38
		c-2.99,0.31-25.26,2.24-41.27-14.38c-9.65-10.02-12.08-21.65-12.79-26.43c-1.97-13.86-3.93-27.72-5.9-41.58
		c20.5,0.02,47.62-2.01,78.36-10.11c36.15-9.53,64.21-24.02,83.34-35.87c4.85,31.86,7.76,51.56,9.55,64.1
		c0.02,0.15,0.02,0.17,0.03,0.21c2.67,19.12-8.41,34.49-9.11,35.43C667.33,785.65,661.3,789.73,657.18,792.01z"/>
	<path class="st5" d="M756,876c-15.1,1.37-26.41-4.53-32.53-7.13c-32.03-13.64-79.52-4.22-85.47,12.13c-1.54,4.22-1.51,12.19,12,27
		c4.44,3.17,11.95,7.76,22,10c35.93,8.01,53.26-25.4,86-20c26.86,4.43,32.51,29.77,57,28c14.19-1.02,25.12-10.45,32-18
		c27.13-40.66,24.45-52.04,21-56c-11.13-12.76-69.38,6.92-92.39,18.18C772.82,871.55,765.81,875.11,756,876z"/>
	<g class="st1">
		<path class="st7" d="M842.21,792.01c7.44-2.7,24.18-7.64,45.18-4.01c21.39,3.7,35.67,14.29,41.73,19.38
			c2.99,0.31,25.26,2.24,41.27-14.38c9.65-10.02,12.08-21.65,12.79-26.43c1.97-13.86,3.93-27.72,5.9-41.58
			c-20.5,0.02-47.62-2.01-78.36-10.11c-36.15-9.53-64.21-24.02-83.34-35.87c-4.85,31.86-7.76,51.56-9.55,64.1
			c-0.02,0.15-0.02,0.17-0.03,0.21c-2.67,19.12,8.41,34.49,9.11,35.43C832.05,785.65,838.08,789.73,842.21,792.01z"/>
		<path class="st8" d="M842.21,792.01c7.44-2.7,24.18-7.64,45.18-4.01c21.39,3.7,35.67,14.29,41.73,19.38
			c2.99,0.31,25.26,2.24,41.27-14.38c9.65-10.02,12.08-21.65,12.79-26.43c1.97-13.86,3.93-27.72,5.9-41.58
			c-20.5,0.02-47.62-2.01-78.36-10.11c-36.15-9.53-64.21-24.02-83.34-35.87c-4.85,31.86-7.76,51.56-9.55,64.1
			c-0.02,0.15-0.02,0.17-0.03,0.21c-2.67,19.12,8.41,34.49,9.11,35.43C832.05,785.65,838.08,789.73,842.21,792.01z"/>
	</g>
	<path class="st6" d="M478,694c0.44,2.83,2.83,16.16,15,25c8.05,5.85,16.35,6.81,20,7"/>
	<path class="st6" d="M514,682c0.69,4.91,3.4,19.58,16,31c6.17,5.59,12.58,8.47,17,10"/>
	<path class="st6" d="M1024,693c-0.44,2.83-2.83,16.16-15,25c-8.05,5.85-16.35,6.81-20,7"/>
	<path class="st6" d="M988,681c-0.69,4.91-3.4,19.58-16,31c-6.17,5.59-12.58,8.47-17,10"/>
</g>
<g id="Лицо3" class="st0">
	<path class="st6" d="M667,844c12.87-7.39,42.12-21.88,82-22c40.45-0.12,70.13,14.61,83,22"/>
	<path class="st5" d="M986.98,707c0.93,46.3-34.94,84.5-77.98,87c-46.44,2.7-88.64-36.9-87.82-87H986.98z"/>
	<path class="st5" d="M1022.48,698.04c-3.38,5.34-8.51,12.23-16,19c-8.27,7.48-16.44,12.12-22.48,14.96"/>
	<path class="st5" d="M1006.56,684.48c-0.98,3.12-5.26,15.48-17.09,20.56c-2.63,1.13-5.18,1.7-7.48,1.96"/>
	<path class="st5" d="M712,627"/>
	<path class="st6" d="M1318,761"/>
	<path class="st5" d="M514.66,707c-0.93,46.3,34.94,84.5,77.98,87c46.44,2.7,88.64-36.9,87.82-87H514.66z"/>
	<path class="st5" d="M479.16,698.04c3.38,5.34,8.51,12.23,16,19c8.27,7.48,16.44,12.12,22.48,14.96"/>
	<path class="st5" d="M495.08,684.48c0.98,3.12,5.26,15.48,17.09,20.56c2.63,1.13,5.18,1.7,7.48,1.96"/>
</g>
<g id="Лицо4" class="st0">
	<path class="st5" d="M759,879c-10.77,0.11-22.81-0.82-35.69-3.61c-55.36-12.02-89.63-50.68-103.54-68.64
		c87.08-0.25,174.15-0.5,261.23-0.74c-11.07,16.54-39.54,53.74-88.91,67.73C780.18,877.11,768.97,878.58,759,879z"/>
	<path class="st5" d="M678.98,743c0.93-46.3-34.94-84.5-77.98-87c-46.44-2.7-88.64,36.9-87.82,87H678.98z"/>
	<path class="st5" d="M986.98,743c0.93-46.3-34.94-84.5-77.98-87c-46.44-2.7-88.64,36.9-87.82,87H986.98z"/>
	<path class="st5" d="M478,678c3.31,5.29,8.43,12.22,16,19c6.93,6.2,13.72,10.32,19,13"/>
	<path class="st5" d="M498.91,649.44c3.16,5.49,8.51,13.26,17.09,20.56c6.54,5.57,12.94,9.15,17.91,11.44"/>
	<path class="st5" d="M1022.48,678.04c-3.31,5.29-8.43,12.22-16,19c-6.93,6.2-13.72,10.32-19,13"/>
	<path class="st5" d="M1004.56,649.48c-3.16,5.49-8.51,13.26-17.09,20.56c-6.54,5.57-12.94,9.15-17.91,11.44"/>
</g>
<g id="Лицо5">
	<path class="st9" d="M657.18,792.01c-7.44-2.7-24.18-7.64-45.18-4.01c-21.39,3.7-35.67,14.29-41.73,19.38
		c-2.99,0.31-25.26,2.24-41.27-14.38c-9.65-10.02-12.08-21.65-12.79-26.43c-1.97-13.86-3.93-27.72-5.9-41.58
		c20.5,0.02,47.62-2.01,78.36-10.11c36.15-9.53,64.21-24.02,83.34-35.87c4.85,31.86,7.76,51.56,9.55,64.1
		c0.02,0.15,0.02,0.17,0.03,0.21c2.67,19.12-8.41,34.49-9.11,35.43C667.33,785.65,661.3,789.73,657.18,792.01z"/>
	<g>
		<path class="st7" d="M842.21,792.01c7.44-2.7,24.18-7.64,45.18-4.01c21.39,3.7,35.67,14.29,41.73,19.38
			c2.99,0.31,25.26,2.24,41.27-14.38c9.65-10.02,12.08-21.65,12.79-26.43c1.97-13.86,3.93-27.72,5.9-41.58
			c-20.5,0.02-47.62-2.01-78.36-10.11c-36.15-9.53-64.21-24.02-83.34-35.87c-4.85,31.86-7.76,51.56-9.55,64.1
			c-0.02,0.15-0.02,0.17-0.03,0.21c-2.67,19.12,8.41,34.49,9.11,35.43C832.05,785.65,838.08,789.73,842.21,792.01z"/>
		<path class="st8" d="M842.21,792.01c7.44-2.7,24.18-7.64,45.18-4.01c21.39,3.7,35.67,14.29,41.73,19.38
			c2.99,0.31,25.26,2.24,41.27-14.38c9.65-10.02,12.08-21.65,12.79-26.43c1.97-13.86,3.93-27.72,5.9-41.58
			c-20.5,0.02-47.62-2.01-78.36-10.11c-36.15-9.53-64.21-24.02-83.34-35.87c-4.85,31.86-7.76,51.56-9.55,64.1
			c-0.02,0.15-0.02,0.17-0.03,0.21c-2.67,19.12,8.41,34.49,9.11,35.43C832.05,785.65,838.08,789.73,842.21,792.01z"/>
	</g>
	<path class="st8" d="M620,853c21.89-11.81,64.77-31.15,122-33c66.05-2.14,115.61,20.17,138,32"/>
	<path class="st8" d="M478,694c0.44,2.83,2.83,16.16,15,25c8.05,5.85,16.35,6.81,20,7"/>
	<path class="st8" d="M514,682c0.69,4.91,3.4,19.58,16,31c6.17,5.59,12.58,8.47,17,10"/>
	<path class="st8" d="M588,661"/>
	<path class="st8" d="M592,732"/>
	<path class="st8" d="M1024,693c-0.44,2.83-2.83,16.16-15,25c-8.05,5.85-16.35,6.81-20,7"/>
	<path class="st8" d="M988,681c-0.69,4.91-3.4,19.58-16,31c-6.17,5.59-12.58,8.47-17,10"/>
</g>
</svg>
