<?xml version="1.0" encoding="utf-8"?>
<!-- Generator: Adobe Illustrator 25.1.0, SVG Export Plug-In . SVG Version: 6.00 Build 0)  -->
<svg version="1.1" xmlns="http://www.w3.org/2000/svg" xmlns:xlink="http://www.w3.org/1999/xlink" x="0px" y="0px"
	 viewBox="0 0 1500 1500" style="enable-background:new 0 0 1500 1500;" xml:space="preserve">
<style type="text/css">
	.st0{display:none;}
	.st1{display:inline;}
	.st2{fill:#FF7BAC;stroke:#ED1E79;stroke-width:0.25;stroke-miterlimit:10;}
	.st3{fill:#ED1E79;fill-opacity:0.65;}
	.st4{fill:none;stroke:#ED1E79;stroke-width:12;stroke-miterlimit:10;}
	.st5{display:inline;fill:#FFFFFF;stroke:#A20043;stroke-width:12;stroke-miterlimit:10;}
	.st6{display:inline;fill:#C5006E;stroke:#A20043;stroke-width:12;stroke-miterlimit:10;}
	.st7{fill:none;stroke:#A20043;stroke-width:12;stroke-miterlimit:10;}
	.st8{fill:#FFFFFF;stroke:#A20043;stroke-width:12;stroke-miterlimit:10;}
	.st9{display:inline;fill:none;stroke:#A20043;stroke-width:12;stroke-miterlimit:10;}
</style>
<g id="Контур" class="st0">
	<g class="st1">
		<path class="st2" d="M1187.47,1243H320.53c-36.74,0-66.53-29.79-66.53-66.53V309.53c0-36.74,29.79-66.53,66.53-66.53h866.94
			c36.74,0,66.53,29.79,66.53,66.53v866.94C1254,1213.21,1224.21,1243,1187.47,1243z"/>
		<path class="st3" d="M1129.47,1185H378.53c-36.74,0-66.53-29.79-66.53-66.53V367.53c0-36.74,29.79-66.53,66.53-66.53h750.94
			c36.74,0,66.53,29.79,66.53,66.53v750.94C1196,1155.21,1166.21,1185,1129.47,1185z"/>
		<path class="st4" d="M1086.47,1142H421.53c-36.74,0-66.53-29.79-66.53-66.53V410.53c0-36.74,29.79-66.53,66.53-66.53h664.94
			c36.74,0,66.53,29.79,66.53,66.53v664.94C1153,1112.21,1123.21,1142,1086.47,1142z"/>
		<line class="st4" x1="254" y1="310" x2="355" y2="411"/>
		<line class="st4" x1="321" y1="243" x2="422" y2="344"/>
		<line class="st4" x1="1085.97" y1="1141.75" x2="1186.97" y2="1242.75"/>
		<line class="st4" x1="1152.97" y1="1074.75" x2="1253.97" y2="1175.75"/>
		<line class="st4" x1="1152.97" y1="410.75" x2="1253.97" y2="309.75"/>
		<line class="st4" x1="1085.97" y1="343.75" x2="1186.97" y2="242.75"/>
		<line class="st4" x1="320.97" y1="1242.75" x2="421.97" y2="1141.75"/>
		<line class="st4" x1="253.97" y1="1175.75" x2="354.97" y2="1074.75"/>
		<path class="st4" d="M1187.47,1243H320.53c-36.74,0-66.53-29.79-66.53-66.53V309.53c0-36.74,29.79-66.53,66.53-66.53h866.94
			c36.74,0,66.53,29.79,66.53,66.53v866.94C1254,1213.21,1224.21,1243,1187.47,1243z"/>
	</g>
</g>
<g id="Лицо1" class="st0">
	<path class="st5" d="M632.21,888h-71.42C534.4,888,513,866.6,513,840.21V645.79c0-26.39,21.4-47.79,47.79-47.79h71.42
		c26.39,0,47.79,21.4,47.79,47.79v194.42C680,866.6,658.6,888,632.21,888z"/>
	<path class="st5" d="M940.21,888h-71.42C842.4,888,821,866.6,821,840.21V645.79c0-26.39,21.4-47.79,47.79-47.79h71.42
		c26.39,0,47.79,21.4,47.79,47.79v194.42C988,866.6,966.6,888,940.21,888z"/>
	<path class="st6" d="M672,943c26.76-0.65,137.92-0.66,165,0"/>
</g>
<g id="Лицо2">
	<path class="st7" d="M672,835c8.38-6.7,39.42-29.86,85-29c42.49,0.8,71.24,21.99,80,29l0,0"/>
	<path class="st8" d="M1038.21,761H884.79C858.4,761,837,739.6,837,713.21v0c0-26.39,21.4-47.79,47.79-47.79h153.42
		c26.39,0,47.79,21.4,47.79,47.79v0C1086,739.6,1064.6,761,1038.21,761z"/>
	<path class="st8" d="M623.86,761.17H470.44c-26.39,0-47.79-21.4-47.79-47.79v0c0-26.39,21.4-47.79,47.79-47.79h153.42
		c26.39,0,47.79,21.4,47.79,47.79v0C671.65,739.78,650.25,761.17,623.86,761.17z"/>
</g>
<g id="Лицо3" class="st0">
	<path class="st5" d="M1038.21,761H884.79C858.4,761,837,739.6,837,713.21v0c0-26.39,21.4-47.79,47.79-47.79h153.42
		c26.39,0,47.79,21.4,47.79,47.79v0C1086,739.6,1064.6,761,1038.21,761z"/>
	<path class="st5" d="M623.86,761.17H470.44c-26.39,0-47.79-21.4-47.79-47.79v0c0-26.39,21.4-47.79,47.79-47.79h153.42
		c26.39,0,47.79,21.4,47.79,47.79v0C671.65,739.78,650.25,761.17,623.86,761.17z"/>
	<path class="st9" d="M655,863c7.13-6.92,18.72-16.5,35-23c34.87-13.93,50.97,2.34,90-7c38.81-9.28,49.68-31.77,68-25
		c16.17,5.98,22.91,29.12,26,50"/>
</g>
<g id="Лицо4" class="st0">
	<path class="st5" d="M1038.21,761H884.79C858.4,761,837,739.6,837,713.21v0c0-26.39,21.4-47.79,47.79-47.79h153.42
		c26.39,0,47.79,21.4,47.79,47.79v0C1086,739.6,1064.6,761,1038.21,761z"/>
	<path class="st5" d="M623.86,761.17H470.44c-26.39,0-47.79-21.4-47.79-47.79v0c0-26.39,21.4-47.79,47.79-47.79h153.42
		c26.39,0,47.79,21.4,47.79,47.79v0C671.65,739.78,650.25,761.17,623.86,761.17z"/>
	<path class="st9" d="M672,853c6,5.69,37.09,34,85,33c44.73-0.93,73.44-26.77,80-33"/>
</g>
<g id="Лицо5" class="st0">
	<path class="st5" d="M1038.21,761H884.79C858.4,761,837,739.6,837,713.21v0c0-26.39,21.4-47.79,47.79-47.79h153.42
		c26.39,0,47.79,21.4,47.79,47.79v0C1086,739.6,1064.6,761,1038.21,761z"/>
	<path class="st5" d="M623.86,761.17H470.44c-26.39,0-47.79-21.4-47.79-47.79v0c0-26.39,21.4-47.79,47.79-47.79h153.42
		c26.39,0,47.79,21.4,47.79,47.79v0C671.65,739.78,650.25,761.17,623.86,761.17z"/>
	<path class="st6" d="M672,943c26.76-0.65,137.92-0.66,165,0"/>
</g>
</svg>
