<?xml version="1.0" encoding="utf-8"?>
<!-- Generator: Adobe Illustrator 25.1.0, SVG Export Plug-In . SVG Version: 6.00 Build 0)  -->
<svg version="1.1" xmlns="http://www.w3.org/2000/svg" xmlns:xlink="http://www.w3.org/1999/xlink" x="0px" y="0px"
	 viewBox="0 0 1500 1500" style="enable-background:new 0 0 1500 1500;" xml:space="preserve">
<style type="text/css">
	.st0{display:none;}
	.st1{display:inline;}
	.st2{fill:#9AD8FF;stroke:#59BFFF;stroke-width:0.25;stroke-miterlimit:10;}
	.st3{fill:#39BCFD;fill-opacity:0.65;}
	.st4{fill:none;stroke:#38BCFF;stroke-width:12;stroke-miterlimit:10;}
	.st5{display:inline;fill:#FFFFFF;stroke:#0071BC;stroke-width:12;stroke-miterlimit:10;}
	.st6{display:inline;fill:none;stroke:#0071BC;stroke-width:12;stroke-miterlimit:10;}
	.st7{fill:#FFFFFF;stroke:#0071BC;stroke-width:12;stroke-miterlimit:10;}
	.st8{fill:none;stroke:#0071BC;stroke-width:12;stroke-miterlimit:10;}
	.st9{fill:#FFFFFF;}
	.st10{fill:#0071BC;}
</style>
<g id="Контур" class="st0">
	<g class="st1">
		<path class="st2" d="M1187.47,1243H320.53c-36.74,0-66.53-29.79-66.53-66.53V309.53c0-36.74,29.79-66.53,66.53-66.53h866.94
			c36.74,0,66.53,29.79,66.53,66.53v866.94C1254,1213.21,1224.21,1243,1187.47,1243z"/>
		<path class="st3" d="M1129.47,1185H378.53c-36.74,0-66.53-29.79-66.53-66.53V367.53c0-36.74,29.79-66.53,66.53-66.53h750.94
			c36.74,0,66.53,29.79,66.53,66.53v750.94C1196,1155.21,1166.21,1185,1129.47,1185z"/>
		<path class="st4" d="M1086.47,1142H421.53c-36.74,0-66.53-29.79-66.53-66.53V410.53c0-36.74,29.79-66.53,66.53-66.53h664.94
			c36.74,0,66.53,29.79,66.53,66.53v664.94C1153,1112.21,1123.21,1142,1086.47,1142z"/>
		<line class="st4" x1="254" y1="310" x2="355" y2="411"/>
		<line class="st4" x1="321" y1="243" x2="422" y2="344"/>
		<line class="st4" x1="1085.97" y1="1141.75" x2="1186.97" y2="1242.75"/>
		<line class="st4" x1="1152.97" y1="1074.75" x2="1253.97" y2="1175.75"/>
		<line class="st4" x1="1152.97" y1="410.75" x2="1253.97" y2="309.75"/>
		<line class="st4" x1="1085.97" y1="343.75" x2="1186.97" y2="242.75"/>
		<line class="st4" x1="320.97" y1="1242.75" x2="421.97" y2="1141.75"/>
		<line class="st4" x1="253.97" y1="1175.75" x2="354.97" y2="1074.75"/>
		<path class="st4" d="M1187.47,1243H320.53c-36.74,0-66.53-29.79-66.53-66.53V309.53c0-36.74,29.79-66.53,66.53-66.53h866.94
			c36.74,0,66.53,29.79,66.53,66.53v866.94C1254,1213.21,1224.21,1243,1187.47,1243z"/>
	</g>
</g>
<g id="Лицо1" class="st0">
	<path class="st5" d="M632.21,888h-71.42C534.4,888,513,866.6,513,840.21V645.79c0-26.39,21.4-47.79,47.79-47.79h71.42
		c26.39,0,47.79,21.4,47.79,47.79v194.42C680,866.6,658.6,888,632.21,888z"/>
	<path class="st5" d="M940.21,888h-71.42C842.4,888,821,866.6,821,840.21V645.79c0-26.39,21.4-47.79,47.79-47.79h71.42
		c26.39,0,47.79,21.4,47.79,47.79v194.42C988,866.6,966.6,888,940.21,888z"/>
	<path class="st6" d="M667,943c6.59-5.1,35.69-26.49,80.87-26.99c47.25-0.53,77.9,22.17,84.13,26.99"/>
</g>
<g id="Лицо2" class="st0">
	<path class="st5" d="M649,885c-9.12-4.24-30.96-12.81-58-8c-12.94,2.3-23.16,6.97-30.21,11c-13.53,16.45-38.26,17.03-51.79,3
		c-13.27-13.75-12.19-37.82,4-51c0-53.67,0-107.33,0-161c15.62-5.87,33.82-14.15,53-26c29.47-18.2,51.08-38.52,66-55
		c0.07,0,0.14,0,0.21,0c26.39,0,47.79,21.4,47.79,47.79v194.42c-0.15,4.57-1.23,20.88-14,33.79C659.95,880.13,653.4,883.32,649,885z
		"/>
	<path class="st5" d="M852,886c9.12-4.24,30.96-12.81,58-8c12.94,2.3,23.16,6.97,30.21,11c13.53,16.45,38.26,17.03,51.79,3
		c13.27-13.75,12.19-37.82-4-51c0-53.67,0-107.33,0-161c-15.62-5.87-33.82-14.15-53-26c-29.47-18.2-51.08-38.52-66-55
		c-0.07,0-0.14,0-0.21,0C842.4,599,821,620.4,821,646.79v194.42c0.15,4.57,1.23,20.88,14,33.79C841.05,881.13,847.6,884.32,852,886z
		"/>
	<path class="st5" d="M768.52,944.01c-8.16-0.09-17.29,0.65-27.05,2.86c-41.96,9.53-67.94,40.16-78.48,54.4
		c66,0.2,132.01,0.39,198.01,0.59c-8.39-13.11-29.97-42.59-67.39-53.67C784.58,945.51,776.09,944.34,768.52,944.01z"/>
</g>
<g id="Лицо3">
	<path class="st7" d="M649.06,884.98c0,0-0.02,0.01-0.06,0.01c-0.02,0-0.04-0.01-0.05-0.01c-9.15-4.25-30.96-12.77-57.95-7.98
		c-12.93,2.3-23.14,6.96-30.19,10.99c-0.01,0.01-0.03,0.02-0.04,0.03c-13.54,16.43-38.25,17-51.78,2.98
		c-13.26-13.74-12.19-37.77,3.95-50.96c0.03-0.03,0.05-0.07,0.05-0.11c0.03-38.4,0.01-79.93,0-79.93v0c37.54,3.77,60.09-5.34,74-15
		c28.96-20.11,37.24-54.27,65-56c0.47-0.03,1.17-0.07,2.04-0.08c0,0,9.44-0.09,18.96,5.08c18.28,9.92,18.64,184.5,4,198
		c-1.76,1.62-3,2-3,2C666.5,896.29,649.14,884.95,649.06,884.98z"/>
	<path class="st8" d="M667,943c12.87-7.39,42.12-21.88,82-22c40.45-0.12,70.13,14.61,83,22"/>
	<path class="st7" d="M849.73,885.1c0,0,0.02,0.01,0.06,0.01c0.02,0,0.04-0.01,0.05-0.01c9.15-4.25,30.96-12.77,57.95-7.98
		c12.93,2.3,23.14,6.96,30.19,10.99c0.01,0.01,0.03,0.02,0.04,0.03c13.54,16.43,38.25,17,51.78,2.98
		c13.26-13.74,12.19-37.77-3.95-50.96c-0.03-0.03-0.05-0.07-0.05-0.11c-0.03-38.4-0.01-79.93,0-79.93v0
		c-37.54,3.77-60.09-5.34-74-15c-28.96-20.11-37.24-54.27-65-56c-0.47-0.03-1.17-0.07-2.04-0.08c0,0-9.44-0.09-18.96,5.08
		c-18.28,9.92-18.64,184.5-4,198c1.76,1.62,3,2,3,2C832.28,896.41,849.64,885.07,849.73,885.1z"/>
</g>
<g id="Лицо4" class="st0">
	<g class="st1">
		<path class="st9" d="M513,840.21V645.79c0.04-3.54,0.6-20.27,14-33.79c11.34-11.45,24.88-13.53,29-14c33.79,0.01,60.7,0.01,76,0
			c0.14,0,0.17,0,0.21,0c9.95,0.02,24.07,3.65,34.79,15c12.55,13.28,12.99,29.25,13,32.79c0,64.81,0,129.61,0,194.42
			c-5.03-5.36-34.38-35.59-82-36.21C548.65,803.35,517.88,835.02,513,840.21z"/>
		<g>
			<path class="st10" d="M518,840.21c0-19.73,0-39.46,0-59.18c0-33.81,0-67.61,0-101.42c0-21.09-4-46.77,11.94-63.45
				c7.89-8.25,18.99-13.16,30-13.15c15.39,0,30.77,0.01,46.16,0.01c10.06,0,20.59-0.89,30.61,0.24c13.33,1.5,25.62,9.23,32.37,20.85
				c5.69,9.79,5.92,19.69,5.92,30.63c0,17.52,0,35.05,0,52.57c0,35.38,0,70.76,0,106.14c0,8.93,0,17.85,0,26.78
				c2.85-1.18,5.69-2.36,8.54-3.54c-15.43-16.39-36.12-28.41-57.88-34c-32.23-8.29-66.77-2.03-94.52,16.13
				c-7.82,5.12-15.25,11.06-21.67,17.87c-4.41,4.68,2.65,11.77,7.07,7.07c13.64-14.48,31.65-25.23,50.73-30.66
				c30.45-8.67,63.05-3.01,89.42,14.22c7.19,4.7,13.88,10.19,19.78,16.45c3,3.19,8.54,0.71,8.54-3.54c0-37.03,0-74.06,0-111.1
				c0-18.52,0-37.03,0-55.55c0-12.8,1.43-26.37-1.28-39c-2.9-13.51-11.17-25.49-22.76-33.01c-9.94-6.44-21.13-8.56-32.77-8.55
				c-12.24,0.01-24.47,0.01-36.71,0c-8.26,0-16.53,0-24.79,0c-5.89,0-11.62-0.23-17.38,1.11c-23.72,5.53-40.64,26.9-41.29,51.11
				c-0.16,6.11-0.01,12.25-0.01,18.36c0,33.09,0,66.18,0,99.27c0,25.32-0.71,50.75,0,76.06c0.01,0.43,0,0.87,0,1.3
				C508,846.64,518,846.65,518,840.21z"/>
		</g>
	</g>
	<path class="st5" d="M763,989c-10.77,0.11-22.81-0.82-35.69-3.61c-55.36-12.02-89.63-50.68-103.54-68.64
		c87.08-0.25,174.15-0.5,261.23-0.74c-11.07,16.54-39.54,53.74-88.91,67.73C784.18,987.11,772.97,988.58,763,989z"/>
	<g class="st1">
		<path class="st9" d="M821.5,840.71V646.29c0.04-3.54,0.6-20.27,14-33.79c11.34-11.45,24.88-13.53,29-14c33.79,0.01,60.7,0.01,76,0
			c0.14,0,0.17,0,0.21,0c9.95,0.02,24.07,3.65,34.79,15c12.55,13.28,12.99,29.25,13,32.79c0,64.81,0,129.61,0,194.42
			c-5.03-5.36-34.38-35.59-82-36.21C857.15,803.85,826.38,835.52,821.5,840.71z"/>
		<g>
			<path class="st10" d="M826.5,840.71c0-19.73,0-39.46,0-59.18c0-33.81,0-67.61,0-101.42c0-21.09-4-46.77,11.94-63.45
				c7.89-8.25,18.99-13.16,30-13.15c15.39,0,30.77,0.01,46.16,0.01c10.06,0,20.59-0.89,30.61,0.24c13.33,1.5,25.62,9.23,32.37,20.85
				c5.69,9.79,5.92,19.69,5.92,30.63c0,17.52,0,35.05,0,52.57c0,35.38,0,70.76,0,106.14c0,8.93,0,17.85,0,26.78
				c2.85-1.18,5.69-2.36,8.54-3.54c-15.43-16.39-36.12-28.41-57.88-34c-32.23-8.29-66.77-2.03-94.52,16.13
				c-7.82,5.12-15.25,11.06-21.67,17.87c-4.41,4.68,2.65,11.77,7.07,7.07c13.64-14.48,31.65-25.23,50.73-30.66
				c30.45-8.67,63.05-3.01,89.42,14.22c7.19,4.7,13.88,10.19,19.78,16.45c3,3.19,8.54,0.71,8.54-3.54c0-37.03,0-74.06,0-111.1
				c0-18.52,0-37.03,0-55.55c0-12.8,1.43-26.37-1.28-39c-2.9-13.51-11.17-25.49-22.76-33.01c-9.94-6.44-21.13-8.56-32.77-8.55
				c-12.24,0.01-24.47,0.01-36.71,0c-8.26,0-16.53,0-24.79,0c-5.89,0-11.62-0.23-17.38,1.11c-23.72,5.53-40.64,26.9-41.29,51.11
				c-0.16,6.11-0.01,12.25-0.01,18.36c0,33.09,0,66.18,0,99.27c0,25.32-0.71,50.75,0,76.06c0.01,0.43,0,0.87,0,1.3
				C816.5,847.14,826.5,847.15,826.5,840.71z"/>
		</g>
	</g>
</g>
<g id="Лицо5" class="st0">
	<path class="st5" d="M680,770c-11.36-7.46-40.74-24.59-82-25c-43.05-0.42-73.74,17.6-85,25c0-41.4,0-82.81,0-124.21
		c0-26.39,21.4-47.79,47.79-47.79h71.42c26.39,0,47.79,21.4,47.79,47.79C680,687.19,680,728.6,680,770z"/>
	<path class="st6" d="M625,864c10.34-10.61,25.66-22.97,41-20c18.77,3.64,22.59,27.34,39,28c18.15,0.73,23.82-27.86,42.87-27.99
		c18.95-0.13,23.39,28.1,43.13,28.99c20.65,0.93,29.14-29.36,51-29c12.75,0.21,23.08,10.73,30,20"/>
	<path class="st5" d="M988,770c-11.36-7.46-40.74-24.59-82-25c-43.05-0.42-73.74,17.6-85,25c0-41.4,0-82.81,0-124.21
		c0-26.39,21.4-47.79,47.79-47.79h71.42c26.39,0,47.79,21.4,47.79,47.79C988,687.19,988,728.6,988,770z"/>
	<path class="st6" d="M179,707"/>
</g>
</svg>
